# xmcd
# 
# Track frame offsets:
#     150
#     12220
#     22745
#     37647
#     49645
#     67422
#     84375
#     94792
#     106552
#     120237
#     134325
#     149822
#     160795
#     172410
#     183640
#     197422
# 
# Disc length: 2811
# 
# Revision: 9
# Processed by: cddbd v1.5.2PL0 Copyright (c) Steve Scherf et al.
# Submitted via: fre:ac v1.0.31
# 
DISCID=cd0af910
DTITLE=Voldemar Kuslap - Meeletu rüütel - Kutse tantsule 7
DYEAR=1997
DGENRE=Pop
TTITLE0=Kas vana arm ka roostetab
TTITLE1=Lilled sinule
TTITLE2=Meeletu rüütel
TTITLE3=Tihti küll seda ei juhtu
TTITLE4=Väike tüdruk
TTITLE5=Kui ootab sadam
TTITLE6=Urjala jaaniöö
TTITLE7=Armastuse lugu
TTITLE8=Mustamäe valss
TTITLE9=Lõppenud on päevad
TTITLE10=See sündis lõunas
TTITLE11=Õnnesoovid
TTITLE12=Jalgratturi valss
TTITLE13=Vana vokk
TTITLE14=Kiigemälestus
TTITLE15=Minu südames sa elad
EXTD=
EXTT0=
EXTT1=
EXTT2=
EXTT3=
EXTT4=
EXTT5=
EXTT6=
EXTT7=
EXTT8=
EXTT9=
EXTT10=
EXTT11=
EXTT12=
EXTT13=
EXTT14=
EXTT15=
PLAYORDER=
